M48
INCH,TZ
T01C0.020
T02C0.028
T03C0.030
T04C0.035
%
T01
X007800Y002850
X011800Y002850
X005300Y003550
X005300Y001550
X007700Y001150
X008700Y001150
T02
X001500Y005750
X001500Y007750
X004200Y007350
X004200Y005350
X005600Y005350
X007610Y007350
X010960Y005350
X006270Y007350
X006940Y005350
X010290Y007350
X008950Y007350
X008280Y005350
X011630Y007350
X009620Y005350
X012300Y005350
X013700Y005350
X013700Y007350
X001500Y001550
X001500Y003550
T03
X010000Y001150
X011000Y001150
X012000Y001150
X013000Y001150
X014000Y001150
X015000Y001150
T04
X007600Y008750
X010300Y008750
M30
