G04 Title: (unknown), Fabrication Drawing *
G04 Creator: pcb-bin 1.99p *
G04 CreationDate: Wed Dec  8 04:36:31 2004 UTC *
G04 For: alan *
G04 Format: Gerber/RS-274X *
G04 PCB-Dimensions: 157500 99500 *
G04 PCB-Coordinate-Origin: lower left *
%MOIN*%
%FSLAX24Y24*%
%IPPOS*%
%ADD11C,0.0400*%
%ADD12R,0.0500X0.0500*%
%ADD13C,0.0500*%
%ADD14C,0.0200*%
%ADD15C,0.0080*%
%ADD16C,0.0800*%
%ADD17C,0.0100*%
%ADD18R,0.0600X0.0600*%
%ADD19C,0.0600*%
%ADD20C,0.0150*%
%ADD21C,0.0110*%
%LNGROUP_1*%
%LPD*%
G01X0Y0D02*
G54D15*X7520Y8750D02*G75*G03X7680Y8750I80J0D01*G01*
G75*G03X7520Y8750I-80J0D01*G01*
X10220D02*G75*G03X10380Y8750I80J0D01*G01*
G75*G03X10220Y8750I-80J0D01*G01*
X1420Y11075D02*G75*G03X1580Y11075I80J0D01*G01*
G75*G03X1420Y11075I-80J0D01*G01*
G04 Text: YES *
X13500Y11450D02*Y11375D01*
X13650Y11225D01*
X13800Y11375D01*
Y11450D02*Y11375D01*
X13650Y11225D02*Y10850D01*
X13980Y11150D02*X14205D01*
X13980Y10850D02*X14280D01*
X13980Y11450D02*Y10850D01*
Y11450D02*X14280D01*
X14760D02*X14835Y11375D01*
X14535Y11450D02*X14760D01*
X14460Y11375D02*X14535Y11450D01*
X14460Y11375D02*Y11225D01*
X14535Y11150D01*
X14760D01*
X14835Y11075D01*
Y10925D01*
X14760Y10850D02*X14835Y10925D01*
X14535Y10850D02*X14760D01*
X14460Y10925D02*X14535Y10850D01*
X13500Y10524D02*X15015D01*
G04 Text: 2 *
X9800Y11375D02*X9875Y11450D01*
X10100D01*
X10175Y11375D01*
Y11225D01*
X9800Y10850D02*X10175Y11225D01*
X9800Y10850D02*X10175D01*
X9800Y10524D02*X10355D01*
G04 Text: 0.035 *
X4500Y10925D02*X4575Y10850D01*
X4500Y11375D02*Y10925D01*
Y11375D02*X4575Y11450D01*
X4725D01*
X4800Y11375D01*
Y10925D01*
X4725Y10850D02*X4800Y10925D01*
X4575Y10850D02*X4725D01*
X4500Y11000D02*X4800Y11300D01*
X4980Y10850D02*X5055D01*
X5235Y10925D02*X5310Y10850D01*
X5235Y11375D02*Y10925D01*
Y11375D02*X5310Y11450D01*
X5460D01*
X5535Y11375D01*
Y10925D01*
X5460Y10850D02*X5535Y10925D01*
X5310Y10850D02*X5460D01*
X5235Y11000D02*X5535Y11300D01*
X5715Y11375D02*X5790Y11450D01*
X5940D01*
X6015Y11375D01*
Y10925D01*
X5940Y10850D02*X6015Y10925D01*
X5790Y10850D02*X5940D01*
X5715Y10925D02*X5790Y10850D01*
Y11150D02*X6015D01*
X6195Y11450D02*X6495D01*
X6195D02*Y11150D01*
X6270Y11225D01*
X6420D01*
X6495Y11150D01*
Y10925D01*
X6420Y10850D02*X6495Y10925D01*
X6270Y10850D02*X6420D01*
X6195Y10925D02*X6270Y10850D01*
X4500Y10524D02*X6675D01*
X9880Y1270D02*X10120Y1030D01*
X9880D02*X10120Y1270D01*
X10880D02*X11120Y1030D01*
X10880D02*X11120Y1270D01*
X11880D02*X12120Y1030D01*
X11880D02*X12120Y1270D01*
X12880D02*X13120Y1030D01*
X12880D02*X13120Y1270D01*
X13880D02*X14120Y1030D01*
X13880D02*X14120Y1270D01*
X14880D02*X15120Y1030D01*
X14880D02*X15120Y1270D01*
X1380Y12695D02*X1620Y12455D01*
X1380D02*X1620Y12695D01*
G04 Text: YES *
X13500Y12950D02*Y12875D01*
X13650Y12725D01*
X13800Y12875D01*
Y12950D02*Y12875D01*
X13650Y12725D02*Y12350D01*
X13980Y12650D02*X14205D01*
X13980Y12350D02*X14280D01*
X13980Y12950D02*Y12350D01*
Y12950D02*X14280D01*
X14760D02*X14835Y12875D01*
X14535Y12950D02*X14760D01*
X14460Y12875D02*X14535Y12950D01*
X14460Y12875D02*Y12725D01*
X14535Y12650D01*
X14760D01*
X14835Y12575D01*
Y12425D01*
X14760Y12350D02*X14835Y12425D01*
X14535Y12350D02*X14760D01*
X14460Y12425D02*X14535Y12350D01*
X13500Y12024D02*X15015D01*
G04 Text: 6 *
X10025Y12950D02*X10100Y12875D01*
X9875Y12950D02*X10025D01*
X9800Y12875D02*X9875Y12950D01*
X9800Y12875D02*Y12425D01*
X9875Y12350D01*
X10025Y12650D02*X10100Y12575D01*
X9800Y12650D02*X10025D01*
X9875Y12350D02*X10025D01*
X10100Y12425D01*
Y12575D02*Y12425D01*
X9800Y12024D02*X10280D01*
G04 Text: 0.030 *
X4500Y12425D02*X4575Y12350D01*
X4500Y12875D02*Y12425D01*
Y12875D02*X4575Y12950D01*
X4725D01*
X4800Y12875D01*
Y12425D01*
X4725Y12350D02*X4800Y12425D01*
X4575Y12350D02*X4725D01*
X4500Y12500D02*X4800Y12800D01*
X4980Y12350D02*X5055D01*
X5235Y12425D02*X5310Y12350D01*
X5235Y12875D02*Y12425D01*
Y12875D02*X5310Y12950D01*
X5460D01*
X5535Y12875D01*
Y12425D01*
X5460Y12350D02*X5535Y12425D01*
X5310Y12350D02*X5460D01*
X5235Y12500D02*X5535Y12800D01*
X5715Y12875D02*X5790Y12950D01*
X5940D01*
X6015Y12875D01*
Y12425D01*
X5940Y12350D02*X6015Y12425D01*
X5790Y12350D02*X5940D01*
X5715Y12425D02*X5790Y12350D01*
Y12650D02*X6015D01*
X6195Y12425D02*X6270Y12350D01*
X6195Y12875D02*Y12425D01*
Y12875D02*X6270Y12950D01*
X6420D01*
X6495Y12875D01*
Y12425D01*
X6420Y12350D02*X6495Y12425D01*
X6270Y12350D02*X6420D01*
X6195Y12500D02*X6495Y12800D01*
X4500Y12024D02*X6675D01*
X1500Y5910D02*Y5590D01*
X1340Y5750D02*X1660D01*
X1500Y7910D02*Y7590D01*
X1340Y7750D02*X1660D01*
X4200Y7510D02*Y7190D01*
X4040Y7350D02*X4360D01*
X4200Y5510D02*Y5190D01*
X4040Y5350D02*X4360D01*
X5600Y5510D02*Y5190D01*
X5440Y5350D02*X5760D01*
X7610Y7510D02*Y7190D01*
X7450Y7350D02*X7770D01*
X10960Y5510D02*Y5190D01*
X10800Y5350D02*X11120D01*
X6270Y7510D02*Y7190D01*
X6110Y7350D02*X6430D01*
X6940Y5510D02*Y5190D01*
X6780Y5350D02*X7100D01*
X10290Y7510D02*Y7190D01*
X10130Y7350D02*X10450D01*
X8950Y7510D02*Y7190D01*
X8790Y7350D02*X9110D01*
X8280Y5510D02*Y5190D01*
X8120Y5350D02*X8440D01*
X11630Y7510D02*Y7190D01*
X11470Y7350D02*X11790D01*
X9620Y5510D02*Y5190D01*
X9460Y5350D02*X9780D01*
X12300Y5510D02*Y5190D01*
X12140Y5350D02*X12460D01*
X13700Y5510D02*Y5190D01*
X13540Y5350D02*X13860D01*
X13700Y7510D02*Y7190D01*
X13540Y7350D02*X13860D01*
X1500Y1710D02*Y1390D01*
X1340Y1550D02*X1660D01*
X1500Y3710D02*Y3390D01*
X1340Y3550D02*X1660D01*
X1500Y14235D02*Y13915D01*
X1340Y14075D02*X1660D01*
G04 Text: YES *
X13500Y14450D02*Y14375D01*
X13650Y14225D01*
X13800Y14375D01*
Y14450D02*Y14375D01*
X13650Y14225D02*Y13850D01*
X13980Y14150D02*X14205D01*
X13980Y13850D02*X14280D01*
X13980Y14450D02*Y13850D01*
Y14450D02*X14280D01*
X14760D02*X14835Y14375D01*
X14535Y14450D02*X14760D01*
X14460Y14375D02*X14535Y14450D01*
X14460Y14375D02*Y14225D01*
X14535Y14150D01*
X14760D01*
X14835Y14075D01*
Y13925D01*
X14760Y13850D02*X14835Y13925D01*
X14535Y13850D02*X14760D01*
X14460Y13925D02*X14535Y13850D01*
X13500Y13524D02*X15015D01*
G04 Text: 19 *
X9875Y13850D02*X10025D01*
X9950Y14450D02*Y13850D01*
X9800Y14300D02*X9950Y14450D01*
X10205Y13850D02*X10505Y14150D01*
Y14375D02*Y14150D01*
X10430Y14450D02*X10505Y14375D01*
X10280Y14450D02*X10430D01*
X10205Y14375D02*X10280Y14450D01*
X10205Y14375D02*Y14225D01*
X10280Y14150D01*
X10505D01*
X9800Y13524D02*X10685D01*
G04 Text: 0.028 *
X4500Y13925D02*X4575Y13850D01*
X4500Y14375D02*Y13925D01*
Y14375D02*X4575Y14450D01*
X4725D01*
X4800Y14375D01*
Y13925D01*
X4725Y13850D02*X4800Y13925D01*
X4575Y13850D02*X4725D01*
X4500Y14000D02*X4800Y14300D01*
X4980Y13850D02*X5055D01*
X5235Y13925D02*X5310Y13850D01*
X5235Y14375D02*Y13925D01*
Y14375D02*X5310Y14450D01*
X5460D01*
X5535Y14375D01*
Y13925D01*
X5460Y13850D02*X5535Y13925D01*
X5310Y13850D02*X5460D01*
X5235Y14000D02*X5535Y14300D01*
X5715Y14375D02*X5790Y14450D01*
X6015D01*
X6090Y14375D01*
Y14225D01*
X5715Y13850D02*X6090Y14225D01*
X5715Y13850D02*X6090D01*
X6270Y13925D02*X6345Y13850D01*
X6270Y14075D02*Y13925D01*
Y14075D02*X6345Y14150D01*
X6495D01*
X6570Y14075D01*
Y13925D01*
X6495Y13850D02*X6570Y13925D01*
X6345Y13850D02*X6495D01*
X6270Y14225D02*X6345Y14150D01*
X6270Y14375D02*Y14225D01*
Y14375D02*X6345Y14450D01*
X6495D01*
X6570Y14375D01*
Y14225D01*
X6495Y14150D02*X6570Y14225D01*
X4500Y13524D02*X6750D01*
X7800Y2850D02*Y2690D01*
Y2850D02*X7938Y2930D01*
X7800Y2850D02*X7661Y2930D01*
X11800Y2850D02*Y2690D01*
Y2850D02*X11938Y2930D01*
X11800Y2850D02*X11661Y2930D01*
X5300Y3550D02*Y3390D01*
Y3550D02*X5438Y3630D01*
X5300Y3550D02*X5161Y3630D01*
X5300Y1550D02*Y1390D01*
Y1550D02*X5438Y1630D01*
X5300Y1550D02*X5161Y1630D01*
X7700Y1150D02*Y990D01*
Y1150D02*X7838Y1230D01*
X7700Y1150D02*X7561Y1230D01*
X8700Y1150D02*Y990D01*
Y1150D02*X8838Y1230D01*
X8700Y1150D02*X8561Y1230D01*
X1500Y15575D02*Y15415D01*
Y15575D02*X1638Y15655D01*
X1500Y15575D02*X1361Y15655D01*
G04 Text: YES *
X13500Y15950D02*Y15875D01*
X13650Y15725D01*
X13800Y15875D01*
Y15950D02*Y15875D01*
X13650Y15725D02*Y15350D01*
X13980Y15650D02*X14205D01*
X13980Y15350D02*X14280D01*
X13980Y15950D02*Y15350D01*
Y15950D02*X14280D01*
X14760D02*X14835Y15875D01*
X14535Y15950D02*X14760D01*
X14460Y15875D02*X14535Y15950D01*
X14460Y15875D02*Y15725D01*
X14535Y15650D01*
X14760D01*
X14835Y15575D01*
Y15425D01*
X14760Y15350D02*X14835Y15425D01*
X14535Y15350D02*X14760D01*
X14460Y15425D02*X14535Y15350D01*
X13500Y15024D02*X15015D01*
G04 Text: 6 *
X10025Y15950D02*X10100Y15875D01*
X9875Y15950D02*X10025D01*
X9800Y15875D02*X9875Y15950D01*
X9800Y15875D02*Y15425D01*
X9875Y15350D01*
X10025Y15650D02*X10100Y15575D01*
X9800Y15650D02*X10025D01*
X9875Y15350D02*X10025D01*
X10100Y15425D01*
Y15575D02*Y15425D01*
X9800Y15024D02*X10280D01*
G04 Text: 0.020 *
X4500Y15425D02*X4575Y15350D01*
X4500Y15875D02*Y15425D01*
Y15875D02*X4575Y15950D01*
X4725D01*
X4800Y15875D01*
Y15425D01*
X4725Y15350D02*X4800Y15425D01*
X4575Y15350D02*X4725D01*
X4500Y15500D02*X4800Y15800D01*
X4980Y15350D02*X5055D01*
X5235Y15425D02*X5310Y15350D01*
X5235Y15875D02*Y15425D01*
Y15875D02*X5310Y15950D01*
X5460D01*
X5535Y15875D01*
Y15425D01*
X5460Y15350D02*X5535Y15425D01*
X5310Y15350D02*X5460D01*
X5235Y15500D02*X5535Y15800D01*
X5715Y15875D02*X5790Y15950D01*
X6015D01*
X6090Y15875D01*
Y15725D01*
X5715Y15350D02*X6090Y15725D01*
X5715Y15350D02*X6090D01*
X6270Y15425D02*X6345Y15350D01*
X6270Y15875D02*Y15425D01*
Y15875D02*X6345Y15950D01*
X6495D01*
X6570Y15875D01*
Y15425D01*
X6495Y15350D02*X6570Y15425D01*
X6345Y15350D02*X6495D01*
X6270Y15500D02*X6570Y15800D01*
X4500Y15024D02*X6750D01*
G04 Text: Symbol *
X300Y17450D02*X375Y17375D01*
X75Y17450D02*X300D01*
X0Y17375D02*X75Y17450D01*
X0Y17375D02*Y17225D01*
X75Y17150D01*
X300D01*
X375Y17075D01*
Y16925D01*
X300Y16850D02*X375Y16925D01*
X75Y16850D02*X300D01*
X0Y16925D02*X75Y16850D01*
X555Y17150D02*Y16925D01*
X630Y16850D01*
X855Y17150D02*Y16700D01*
X780Y16625D02*X855Y16700D01*
X630Y16625D02*X780D01*
X555Y16700D02*X630Y16625D01*
Y16850D02*X780D01*
X855Y16925D01*
X1110Y17075D02*Y16850D01*
Y17075D02*X1185Y17150D01*
X1260D01*
X1335Y17075D01*
Y16850D01*
Y17075D02*X1410Y17150D01*
X1485D01*
X1560Y17075D01*
Y16850D01*
X1035Y17150D02*X1110Y17075D01*
X1740Y17450D02*Y16850D01*
Y16925D02*X1815Y16850D01*
X1965D01*
X2040Y16925D01*
Y17075D02*Y16925D01*
X1965Y17150D02*X2040Y17075D01*
X1815Y17150D02*X1965D01*
X1740Y17075D02*X1815Y17150D01*
X2220Y17075D02*Y16925D01*
Y17075D02*X2295Y17150D01*
X2445D01*
X2520Y17075D01*
Y16925D01*
X2445Y16850D02*X2520Y16925D01*
X2295Y16850D02*X2445D01*
X2220Y16925D02*X2295Y16850D01*
X2700Y17450D02*Y16925D01*
X2775Y16850D01*
G04 Text: Diam. (Inch) *
X4175Y17450D02*Y16850D01*
X4400Y17450D02*X4475Y17375D01*
Y16925D01*
X4400Y16850D02*X4475Y16925D01*
X4100Y16850D02*X4400D01*
X4100Y17450D02*X4400D01*
X4655Y17300D02*Y17225D01*
Y17075D02*Y16850D01*
X5030Y17150D02*X5105Y17075D01*
X4880Y17150D02*X5030D01*
X4805Y17075D02*X4880Y17150D01*
X4805Y17075D02*Y16925D01*
X4880Y16850D01*
X5105Y17150D02*Y16925D01*
X5180Y16850D01*
X4880D02*X5030D01*
X5105Y16925D01*
X5435Y17075D02*Y16850D01*
Y17075D02*X5510Y17150D01*
X5585D01*
X5660Y17075D01*
Y16850D01*
Y17075D02*X5735Y17150D01*
X5810D01*
X5885Y17075D01*
Y16850D01*
X5360Y17150D02*X5435Y17075D01*
X6065Y16850D02*X6140D01*
X6590Y16925D02*X6665Y16850D01*
X6590Y17375D02*X6665Y17450D01*
X6590Y17375D02*Y16925D01*
X6845Y17450D02*X6995D01*
X6920D02*Y16850D01*
X6845D02*X6995D01*
X7251Y17075D02*Y16850D01*
Y17075D02*X7326Y17150D01*
X7401D01*
X7476Y17075D01*
Y16850D01*
X7176Y17150D02*X7251Y17075D01*
X7731Y17150D02*X7956D01*
X7656Y17075D02*X7731Y17150D01*
X7656Y17075D02*Y16925D01*
X7731Y16850D01*
X7956D01*
X8136Y17450D02*Y16850D01*
Y17075D02*X8211Y17150D01*
X8361D01*
X8436Y17075D01*
Y16850D01*
X8616Y17450D02*X8691Y17375D01*
Y16925D01*
X8616Y16850D02*X8691Y16925D01*
G04 Text: Count *
X9575Y16850D02*X9800D01*
X9500Y16925D02*X9575Y16850D01*
X9500Y17375D02*Y16925D01*
Y17375D02*X9575Y17450D01*
X9800D01*
X9980Y17075D02*Y16925D01*
Y17075D02*X10055Y17150D01*
X10205D01*
X10280Y17075D01*
Y16925D01*
X10205Y16850D02*X10280Y16925D01*
X10055Y16850D02*X10205D01*
X9980Y16925D02*X10055Y16850D01*
X10460Y17150D02*Y16925D01*
X10535Y16850D01*
X10685D01*
X10760Y16925D01*
Y17150D02*Y16925D01*
X11015Y17075D02*Y16850D01*
Y17075D02*X11090Y17150D01*
X11165D01*
X11240Y17075D01*
Y16850D01*
X10940Y17150D02*X11015Y17075D01*
X11495Y17450D02*Y16925D01*
X11570Y16850D01*
X11420Y17225D02*X11570D01*
G04 Text: Plated? *
X13075Y17450D02*Y16850D01*
X13000Y17450D02*X13300D01*
X13375Y17375D01*
Y17225D01*
X13300Y17150D02*X13375Y17225D01*
X13075Y17150D02*X13300D01*
X13555Y17450D02*Y16925D01*
X13630Y16850D01*
X14005Y17150D02*X14080Y17075D01*
X13855Y17150D02*X14005D01*
X13780Y17075D02*X13855Y17150D01*
X13780Y17075D02*Y16925D01*
X13855Y16850D01*
X14080Y17150D02*Y16925D01*
X14155Y16850D01*
X13855D02*X14005D01*
X14080Y16925D01*
X14410Y17450D02*Y16925D01*
X14485Y16850D01*
X14335Y17225D02*X14485D01*
X14710Y16850D02*X14935D01*
X14635Y16925D02*X14710Y16850D01*
X14635Y17075D02*Y16925D01*
Y17075D02*X14710Y17150D01*
X14860D01*
X14935Y17075D01*
X14635Y17000D02*X14935D01*
Y17075D02*Y17000D01*
X15415Y17450D02*Y16850D01*
X15340D02*X15415Y16925D01*
X15190Y16850D02*X15340D01*
X15115Y16925D02*X15190Y16850D01*
X15115Y17075D02*Y16925D01*
Y17075D02*X15190Y17150D01*
X15340D01*
X15415Y17075D01*
X15745Y17150D02*Y17075D01*
Y16925D02*Y16850D01*
X15595Y17375D02*Y17300D01*
Y17375D02*X15670Y17450D01*
X15820D01*
X15895Y17375D01*
Y17300D01*
X15745Y17150D02*X15895Y17300D01*
G04 Text: There are 4 different drill sizes used in this layout, 33 holes total *
X0Y18950D02*X300D01*
X150D02*Y18350D01*
X480Y18950D02*Y18350D01*
Y18575D02*X555Y18650D01*
X705D01*
X780Y18575D01*
Y18350D01*
X1035D02*X1260D01*
X960Y18425D02*X1035Y18350D01*
X960Y18575D02*Y18425D01*
Y18575D02*X1035Y18650D01*
X1185D01*
X1260Y18575D01*
X960Y18500D02*X1260D01*
Y18575D02*Y18500D01*
X1515Y18575D02*Y18350D01*
Y18575D02*X1590Y18650D01*
X1740D01*
X1440D02*X1515Y18575D01*
X1995Y18350D02*X2220D01*
X1920Y18425D02*X1995Y18350D01*
X1920Y18575D02*Y18425D01*
Y18575D02*X1995Y18650D01*
X2145D01*
X2220Y18575D01*
X1920Y18500D02*X2220D01*
Y18575D02*Y18500D01*
X2895Y18650D02*X2970Y18575D01*
X2745Y18650D02*X2895D01*
X2670Y18575D02*X2745Y18650D01*
X2670Y18575D02*Y18425D01*
X2745Y18350D01*
X2970Y18650D02*Y18425D01*
X3045Y18350D01*
X2745D02*X2895D01*
X2970Y18425D01*
X3300Y18575D02*Y18350D01*
Y18575D02*X3375Y18650D01*
X3525D01*
X3225D02*X3300Y18575D01*
X3781Y18350D02*X4006D01*
X3706Y18425D02*X3781Y18350D01*
X3706Y18575D02*Y18425D01*
Y18575D02*X3781Y18650D01*
X3931D01*
X4006Y18575D01*
X3706Y18500D02*X4006D01*
Y18575D02*Y18500D01*
X4456Y18650D02*X4756Y18950D01*
X4456Y18650D02*X4831D01*
X4756Y18950D02*Y18350D01*
X5581Y18950D02*Y18350D01*
X5506D02*X5581Y18425D01*
X5356Y18350D02*X5506D01*
X5281Y18425D02*X5356Y18350D01*
X5281Y18575D02*Y18425D01*
Y18575D02*X5356Y18650D01*
X5506D01*
X5581Y18575D01*
X5761Y18800D02*Y18725D01*
Y18575D02*Y18350D01*
X5986Y18875D02*Y18350D01*
Y18875D02*X6061Y18950D01*
X6136D01*
X5911Y18650D02*X6061D01*
X6361Y18875D02*Y18350D01*
Y18875D02*X6436Y18950D01*
X6511D01*
X6286Y18650D02*X6436D01*
X6736Y18350D02*X6961D01*
X6661Y18425D02*X6736Y18350D01*
X6661Y18575D02*Y18425D01*
Y18575D02*X6736Y18650D01*
X6886D01*
X6961Y18575D01*
X6661Y18500D02*X6961D01*
Y18575D02*Y18500D01*
X7217Y18575D02*Y18350D01*
Y18575D02*X7292Y18650D01*
X7442D01*
X7142D02*X7217Y18575D01*
X7697Y18350D02*X7922D01*
X7622Y18425D02*X7697Y18350D01*
X7622Y18575D02*Y18425D01*
Y18575D02*X7697Y18650D01*
X7847D01*
X7922Y18575D01*
X7622Y18500D02*X7922D01*
Y18575D02*Y18500D01*
X8177Y18575D02*Y18350D01*
Y18575D02*X8252Y18650D01*
X8327D01*
X8402Y18575D01*
Y18350D01*
X8102Y18650D02*X8177Y18575D01*
X8657Y18950D02*Y18425D01*
X8732Y18350D01*
X8582Y18725D02*X8732D01*
X9452Y18950D02*Y18350D01*
X9377D02*X9452Y18425D01*
X9227Y18350D02*X9377D01*
X9152Y18425D02*X9227Y18350D01*
X9152Y18575D02*Y18425D01*
Y18575D02*X9227Y18650D01*
X9377D01*
X9452Y18575D01*
X9707D02*Y18350D01*
Y18575D02*X9782Y18650D01*
X9932D01*
X9632D02*X9707Y18575D01*
X10113Y18800D02*Y18725D01*
Y18575D02*Y18350D01*
X10263Y18950D02*Y18425D01*
X10338Y18350D01*
X10488Y18950D02*Y18425D01*
X10563Y18350D01*
X11058D02*X11283D01*
X11358Y18425D01*
X11283Y18500D02*X11358Y18425D01*
X11058Y18500D02*X11283D01*
X10983Y18575D02*X11058Y18500D01*
X10983Y18575D02*X11058Y18650D01*
X11283D01*
X11358Y18575D01*
X10983Y18425D02*X11058Y18350D01*
X11538Y18800D02*Y18725D01*
Y18575D02*Y18350D01*
X11688Y18650D02*X11988D01*
X11688Y18350D02*X11988Y18650D01*
X11688Y18350D02*X11988D01*
X12243D02*X12468D01*
X12168Y18425D02*X12243Y18350D01*
X12168Y18575D02*Y18425D01*
Y18575D02*X12243Y18650D01*
X12393D01*
X12468Y18575D01*
X12168Y18500D02*X12468D01*
Y18575D02*Y18500D01*
X12724Y18350D02*X12949D01*
X13024Y18425D01*
X12949Y18500D02*X13024Y18425D01*
X12724Y18500D02*X12949D01*
X12649Y18575D02*X12724Y18500D01*
X12649Y18575D02*X12724Y18650D01*
X12949D01*
X13024Y18575D01*
X12649Y18425D02*X12724Y18350D01*
X13474Y18650D02*Y18425D01*
X13549Y18350D01*
X13699D01*
X13774Y18425D01*
Y18650D02*Y18425D01*
X14029Y18350D02*X14254D01*
X14329Y18425D01*
X14254Y18500D02*X14329Y18425D01*
X14029Y18500D02*X14254D01*
X13954Y18575D02*X14029Y18500D01*
X13954Y18575D02*X14029Y18650D01*
X14254D01*
X14329Y18575D01*
X13954Y18425D02*X14029Y18350D01*
X14584D02*X14809D01*
X14509Y18425D02*X14584Y18350D01*
X14509Y18575D02*Y18425D01*
Y18575D02*X14584Y18650D01*
X14734D01*
X14809Y18575D01*
X14509Y18500D02*X14809D01*
Y18575D02*Y18500D01*
X15289Y18950D02*Y18350D01*
X15214D02*X15289Y18425D01*
X15064Y18350D02*X15214D01*
X14989Y18425D02*X15064Y18350D01*
X14989Y18575D02*Y18425D01*
Y18575D02*X15064Y18650D01*
X15214D01*
X15289Y18575D01*
X15739Y18800D02*Y18725D01*
Y18575D02*Y18350D01*
X15964Y18575D02*Y18350D01*
Y18575D02*X16039Y18650D01*
X16114D01*
X16189Y18575D01*
Y18350D01*
X15889Y18650D02*X15964Y18575D01*
X16715Y18950D02*Y18425D01*
X16790Y18350D01*
X16640Y18725D02*X16790D01*
X16940Y18950D02*Y18350D01*
Y18575D02*X17015Y18650D01*
X17165D01*
X17240Y18575D01*
Y18350D01*
X17420Y18800D02*Y18725D01*
Y18575D02*Y18350D01*
X17645D02*X17870D01*
X17945Y18425D01*
X17870Y18500D02*X17945Y18425D01*
X17645Y18500D02*X17870D01*
X17570Y18575D02*X17645Y18500D01*
X17570Y18575D02*X17645Y18650D01*
X17870D01*
X17945Y18575D01*
X17570Y18425D02*X17645Y18350D01*
X18395Y18950D02*Y18425D01*
X18470Y18350D01*
X18845Y18650D02*X18920Y18575D01*
X18695Y18650D02*X18845D01*
X18620Y18575D02*X18695Y18650D01*
X18620Y18575D02*Y18425D01*
X18695Y18350D01*
X18920Y18650D02*Y18425D01*
X18995Y18350D01*
X18695D02*X18845D01*
X18920Y18425D01*
X19176Y18650D02*Y18425D01*
X19251Y18350D01*
X19476Y18650D02*Y18200D01*
X19401Y18125D02*X19476Y18200D01*
X19251Y18125D02*X19401D01*
X19176Y18200D02*X19251Y18125D01*
Y18350D02*X19401D01*
X19476Y18425D01*
X19656Y18575D02*Y18425D01*
Y18575D02*X19731Y18650D01*
X19881D01*
X19956Y18575D01*
Y18425D01*
X19881Y18350D02*X19956Y18425D01*
X19731Y18350D02*X19881D01*
X19656Y18425D02*X19731Y18350D01*
X20136Y18650D02*Y18425D01*
X20211Y18350D01*
X20361D01*
X20436Y18425D01*
Y18650D02*Y18425D01*
X20691Y18950D02*Y18425D01*
X20766Y18350D01*
X20616Y18725D02*X20766D01*
X20916Y18200D02*X21066Y18350D01*
X21516Y18875D02*X21591Y18950D01*
X21741D01*
X21816Y18875D01*
Y18425D01*
X21741Y18350D02*X21816Y18425D01*
X21591Y18350D02*X21741D01*
X21516Y18425D02*X21591Y18350D01*
Y18650D02*X21816D01*
X21996Y18875D02*X22071Y18950D01*
X22221D01*
X22296Y18875D01*
Y18425D01*
X22221Y18350D02*X22296Y18425D01*
X22071Y18350D02*X22221D01*
X21996Y18425D02*X22071Y18350D01*
Y18650D02*X22296D01*
X22747Y18950D02*Y18350D01*
Y18575D02*X22822Y18650D01*
X22972D01*
X23047Y18575D01*
Y18350D01*
X23227Y18575D02*Y18425D01*
Y18575D02*X23302Y18650D01*
X23452D01*
X23527Y18575D01*
Y18425D01*
X23452Y18350D02*X23527Y18425D01*
X23302Y18350D02*X23452D01*
X23227Y18425D02*X23302Y18350D01*
X23707Y18950D02*Y18425D01*
X23782Y18350D01*
X24007D02*X24232D01*
X23932Y18425D02*X24007Y18350D01*
X23932Y18575D02*Y18425D01*
Y18575D02*X24007Y18650D01*
X24157D01*
X24232Y18575D01*
X23932Y18500D02*X24232D01*
Y18575D02*Y18500D01*
X24487Y18350D02*X24712D01*
X24787Y18425D01*
X24712Y18500D02*X24787Y18425D01*
X24487Y18500D02*X24712D01*
X24412Y18575D02*X24487Y18500D01*
X24412Y18575D02*X24487Y18650D01*
X24712D01*
X24787Y18575D01*
X24412Y18425D02*X24487Y18350D01*
X25312Y18950D02*Y18425D01*
X25387Y18350D01*
X25237Y18725D02*X25387D01*
X25537Y18575D02*Y18425D01*
Y18575D02*X25612Y18650D01*
X25762D01*
X25837Y18575D01*
Y18425D01*
X25762Y18350D02*X25837Y18425D01*
X25612Y18350D02*X25762D01*
X25537Y18425D02*X25612Y18350D01*
X26093Y18950D02*Y18425D01*
X26168Y18350D01*
X26018Y18725D02*X26168D01*
X26543Y18650D02*X26618Y18575D01*
X26393Y18650D02*X26543D01*
X26318Y18575D02*X26393Y18650D01*
X26318Y18575D02*Y18425D01*
X26393Y18350D01*
X26618Y18650D02*Y18425D01*
X26693Y18350D01*
X26393D02*X26543D01*
X26618Y18425D01*
X26873Y18950D02*Y18425D01*
X26948Y18350D01*
G04 Text: Maximum Dimensions: 1575 mils wide, 995 mils high *
X20000Y11450D02*Y10850D01*
Y11450D02*X20225Y11225D01*
X20450Y11450D01*
Y10850D01*
X20855Y11150D02*X20930Y11075D01*
X20705Y11150D02*X20855D01*
X20630Y11075D02*X20705Y11150D01*
X20630Y11075D02*Y10925D01*
X20705Y10850D01*
X20930Y11150D02*Y10925D01*
X21005Y10850D01*
X20705D02*X20855D01*
X20930Y10925D01*
X21185Y11150D02*X21485Y10850D01*
X21185D02*X21485Y11150D01*
X21665Y11300D02*Y11225D01*
Y11075D02*Y10850D01*
X21890Y11075D02*Y10850D01*
Y11075D02*X21965Y11150D01*
X22040D01*
X22115Y11075D01*
Y10850D01*
Y11075D02*X22190Y11150D01*
X22265D01*
X22340Y11075D01*
Y10850D01*
X21815Y11150D02*X21890Y11075D01*
X22520Y11150D02*Y10925D01*
X22595Y10850D01*
X22745D01*
X22820Y10925D01*
Y11150D02*Y10925D01*
X23075Y11075D02*Y10850D01*
Y11075D02*X23150Y11150D01*
X23225D01*
X23300Y11075D01*
Y10850D01*
Y11075D02*X23375Y11150D01*
X23450D01*
X23525Y11075D01*
Y10850D01*
X23000Y11150D02*X23075Y11075D01*
X24051Y11450D02*Y10850D01*
X24276Y11450D02*X24351Y11375D01*
Y10925D01*
X24276Y10850D02*X24351Y10925D01*
X23976Y10850D02*X24276D01*
X23976Y11450D02*X24276D01*
X24531Y11300D02*Y11225D01*
Y11075D02*Y10850D01*
X24756Y11075D02*Y10850D01*
Y11075D02*X24831Y11150D01*
X24906D01*
X24981Y11075D01*
Y10850D01*
Y11075D02*X25056Y11150D01*
X25131D01*
X25206Y11075D01*
Y10850D01*
X24681Y11150D02*X24756Y11075D01*
X25461Y10850D02*X25686D01*
X25386Y10925D02*X25461Y10850D01*
X25386Y11075D02*Y10925D01*
Y11075D02*X25461Y11150D01*
X25611D01*
X25686Y11075D01*
X25386Y11000D02*X25686D01*
Y11075D02*Y11000D01*
X25941Y11075D02*Y10850D01*
Y11075D02*X26016Y11150D01*
X26091D01*
X26166Y11075D01*
Y10850D01*
X25866Y11150D02*X25941Y11075D01*
X26421Y10850D02*X26646D01*
X26721Y10925D01*
X26646Y11000D02*X26721Y10925D01*
X26421Y11000D02*X26646D01*
X26346Y11075D02*X26421Y11000D01*
X26346Y11075D02*X26421Y11150D01*
X26646D01*
X26721Y11075D01*
X26346Y10925D02*X26421Y10850D01*
X26901Y11300D02*Y11225D01*
Y11075D02*Y10850D01*
X27052Y11075D02*Y10925D01*
Y11075D02*X27127Y11150D01*
X27277D01*
X27352Y11075D01*
Y10925D01*
X27277Y10850D02*X27352Y10925D01*
X27127Y10850D02*X27277D01*
X27052Y10925D02*X27127Y10850D01*
X27607Y11075D02*Y10850D01*
Y11075D02*X27682Y11150D01*
X27757D01*
X27832Y11075D01*
Y10850D01*
X27532Y11150D02*X27607Y11075D01*
X28087Y10850D02*X28312D01*
X28387Y10925D01*
X28312Y11000D02*X28387Y10925D01*
X28087Y11000D02*X28312D01*
X28012Y11075D02*X28087Y11000D01*
X28012Y11075D02*X28087Y11150D01*
X28312D01*
X28387Y11075D01*
X28012Y10925D02*X28087Y10850D01*
X28567Y11225D02*X28642D01*
X28567Y11075D02*X28642D01*
X29167Y10850D02*X29317D01*
X29242Y11450D02*Y10850D01*
X29092Y11300D02*X29242Y11450D01*
X29497D02*X29797D01*
X29497D02*Y11150D01*
X29572Y11225D01*
X29722D01*
X29797Y11150D01*
Y10925D01*
X29722Y10850D02*X29797Y10925D01*
X29572Y10850D02*X29722D01*
X29497Y10925D02*X29572Y10850D01*
X29978D02*X30353Y11225D01*
Y11450D02*Y11225D01*
X29978Y11450D02*X30353D01*
X30533D02*X30833D01*
X30533D02*Y11150D01*
X30608Y11225D01*
X30758D01*
X30833Y11150D01*
Y10925D01*
X30758Y10850D02*X30833Y10925D01*
X30608Y10850D02*X30758D01*
X30533Y10925D02*X30608Y10850D01*
X31358Y11075D02*Y10850D01*
Y11075D02*X31433Y11150D01*
X31508D01*
X31583Y11075D01*
Y10850D01*
Y11075D02*X31658Y11150D01*
X31733D01*
X31808Y11075D01*
Y10850D01*
X31283Y11150D02*X31358Y11075D01*
X31988Y11300D02*Y11225D01*
Y11075D02*Y10850D01*
X32138Y11450D02*Y10925D01*
X32213Y10850D01*
X32438D02*X32663D01*
X32738Y10925D01*
X32663Y11000D02*X32738Y10925D01*
X32438Y11000D02*X32663D01*
X32363Y11075D02*X32438Y11000D01*
X32363Y11075D02*X32438Y11150D01*
X32663D01*
X32738Y11075D01*
X32363Y10925D02*X32438Y10850D01*
X33188Y11150D02*Y10925D01*
X33263Y10850D01*
X33338D01*
X33413Y10925D01*
Y11150D02*Y10925D01*
X33488Y10850D01*
X33563D01*
X33638Y10925D01*
Y11150D02*Y10925D01*
X33819Y11300D02*Y11225D01*
Y11075D02*Y10850D01*
X34269Y11450D02*Y10850D01*
X34194D02*X34269Y10925D01*
X34044Y10850D02*X34194D01*
X33969Y10925D02*X34044Y10850D01*
X33969Y11075D02*Y10925D01*
Y11075D02*X34044Y11150D01*
X34194D01*
X34269Y11075D01*
X34524Y10850D02*X34749D01*
X34449Y10925D02*X34524Y10850D01*
X34449Y11075D02*Y10925D01*
Y11075D02*X34524Y11150D01*
X34674D01*
X34749Y11075D01*
X34449Y11000D02*X34749D01*
Y11075D02*Y11000D01*
X34929Y10700D02*X35079Y10850D01*
X35529D02*X35829Y11150D01*
Y11375D02*Y11150D01*
X35754Y11450D02*X35829Y11375D01*
X35604Y11450D02*X35754D01*
X35529Y11375D02*X35604Y11450D01*
X35529Y11375D02*Y11225D01*
X35604Y11150D01*
X35829D01*
X36009Y10850D02*X36309Y11150D01*
Y11375D02*Y11150D01*
X36234Y11450D02*X36309Y11375D01*
X36084Y11450D02*X36234D01*
X36009Y11375D02*X36084Y11450D01*
X36009Y11375D02*Y11225D01*
X36084Y11150D01*
X36309D01*
X36489Y11450D02*X36789D01*
X36489D02*Y11150D01*
X36564Y11225D01*
X36714D01*
X36789Y11150D01*
Y10925D01*
X36714Y10850D02*X36789Y10925D01*
X36564Y10850D02*X36714D01*
X36489Y10925D02*X36564Y10850D01*
X37315Y11075D02*Y10850D01*
Y11075D02*X37390Y11150D01*
X37465D01*
X37540Y11075D01*
Y10850D01*
Y11075D02*X37615Y11150D01*
X37690D01*
X37765Y11075D01*
Y10850D01*
X37240Y11150D02*X37315Y11075D01*
X37945Y11300D02*Y11225D01*
Y11075D02*Y10850D01*
X38095Y11450D02*Y10925D01*
X38170Y10850D01*
X38395D02*X38620D01*
X38695Y10925D01*
X38620Y11000D02*X38695Y10925D01*
X38395Y11000D02*X38620D01*
X38320Y11075D02*X38395Y11000D01*
X38320Y11075D02*X38395Y11150D01*
X38620D01*
X38695Y11075D01*
X38320Y10925D02*X38395Y10850D01*
X39145Y11450D02*Y10850D01*
Y11075D02*X39220Y11150D01*
X39370D01*
X39445Y11075D01*
Y10850D01*
X39625Y11300D02*Y11225D01*
Y11075D02*Y10850D01*
X40001Y11150D02*X40076Y11075D01*
X39851Y11150D02*X40001D01*
X39776Y11075D02*X39851Y11150D01*
X39776Y11075D02*Y10925D01*
X39851Y10850D01*
X40001D01*
X40076Y10925D01*
X39776Y10700D02*X39851Y10625D01*
X40001D01*
X40076Y10700D01*
Y11150D02*Y10700D01*
X40256Y11450D02*Y10850D01*
Y11075D02*X40331Y11150D01*
X40481D01*
X40556Y11075D01*
Y10850D01*
*G04 Outline ***
G54D17*X0Y0D02*X15750Y0D01*
X15750Y0D02*X15750Y9950D01*
X15750Y9950D02*X0Y9950D01*
X0Y9950D02*X0Y0D01*
G04 Text: Board outline is the centerline of this 10 mil rectangle - 0,0 to 1575,995 mils *
G54D15*Y-800D02*X300D01*
X375Y-725D01*
Y-575D02*Y-725D01*
X300Y-500D02*X375Y-575D01*
X75Y-500D02*X300D01*
X75Y-200D02*Y-800D01*
X0Y-200D02*X300D01*
X375Y-275D01*
Y-425D01*
X300Y-500D02*X375Y-425D01*
X555Y-575D02*Y-725D01*
Y-575D02*X630Y-500D01*
X780D01*
X855Y-575D01*
Y-725D01*
X780Y-800D02*X855Y-725D01*
X630Y-800D02*X780D01*
X555Y-725D02*X630Y-800D01*
X1260Y-500D02*X1335Y-575D01*
X1110Y-500D02*X1260D01*
X1035Y-575D02*X1110Y-500D01*
X1035Y-575D02*Y-725D01*
X1110Y-800D01*
X1335Y-500D02*Y-725D01*
X1410Y-800D01*
X1110D02*X1260D01*
X1335Y-725D01*
X1665Y-575D02*Y-800D01*
Y-575D02*X1740Y-500D01*
X1890D01*
X1590D02*X1665Y-575D01*
X2370Y-200D02*Y-800D01*
X2295D02*X2370Y-725D01*
X2145Y-800D02*X2295D01*
X2070Y-725D02*X2145Y-800D01*
X2070Y-575D02*Y-725D01*
Y-575D02*X2145Y-500D01*
X2295D01*
X2370Y-575D01*
X2820D02*Y-725D01*
Y-575D02*X2895Y-500D01*
X3045D01*
X3120Y-575D01*
Y-725D01*
X3045Y-800D02*X3120Y-725D01*
X2895Y-800D02*X3045D01*
X2820Y-725D02*X2895Y-800D01*
X3300Y-500D02*Y-725D01*
X3375Y-800D01*
X3525D01*
X3600Y-725D01*
Y-500D02*Y-725D01*
X3856Y-200D02*Y-725D01*
X3931Y-800D01*
X3781Y-425D02*X3931D01*
X4081Y-200D02*Y-725D01*
X4156Y-800D01*
X4306Y-350D02*Y-425D01*
Y-575D02*Y-800D01*
X4531Y-575D02*Y-800D01*
Y-575D02*X4606Y-500D01*
X4681D01*
X4756Y-575D01*
Y-800D01*
X4456Y-500D02*X4531Y-575D01*
X5011Y-800D02*X5236D01*
X4936Y-725D02*X5011Y-800D01*
X4936Y-575D02*Y-725D01*
Y-575D02*X5011Y-500D01*
X5161D01*
X5236Y-575D01*
X4936Y-650D02*X5236D01*
Y-575D02*Y-650D01*
X5686Y-350D02*Y-425D01*
Y-575D02*Y-800D01*
X5911D02*X6136D01*
X6211Y-725D01*
X6136Y-650D02*X6211Y-725D01*
X5911Y-650D02*X6136D01*
X5836Y-575D02*X5911Y-650D01*
X5836Y-575D02*X5911Y-500D01*
X6136D01*
X6211Y-575D01*
X5836Y-725D02*X5911Y-800D01*
X6737Y-200D02*Y-725D01*
X6812Y-800D01*
X6662Y-425D02*X6812D01*
X6962Y-200D02*Y-800D01*
Y-575D02*X7037Y-500D01*
X7187D01*
X7262Y-575D01*
Y-800D01*
X7517D02*X7742D01*
X7442Y-725D02*X7517Y-800D01*
X7442Y-575D02*Y-725D01*
Y-575D02*X7517Y-500D01*
X7667D01*
X7742Y-575D01*
X7442Y-650D02*X7742D01*
Y-575D02*Y-650D01*
X8267Y-500D02*X8492D01*
X8192Y-575D02*X8267Y-500D01*
X8192Y-575D02*Y-725D01*
X8267Y-800D01*
X8492D01*
X8747D02*X8972D01*
X8672Y-725D02*X8747Y-800D01*
X8672Y-575D02*Y-725D01*
Y-575D02*X8747Y-500D01*
X8897D01*
X8972Y-575D01*
X8672Y-650D02*X8972D01*
Y-575D02*Y-650D01*
X9227Y-575D02*Y-800D01*
Y-575D02*X9302Y-500D01*
X9377D01*
X9452Y-575D01*
Y-800D01*
X9152Y-500D02*X9227Y-575D01*
X9708Y-200D02*Y-725D01*
X9783Y-800D01*
X9633Y-425D02*X9783D01*
X10008Y-800D02*X10233D01*
X9933Y-725D02*X10008Y-800D01*
X9933Y-575D02*Y-725D01*
Y-575D02*X10008Y-500D01*
X10158D01*
X10233Y-575D01*
X9933Y-650D02*X10233D01*
Y-575D02*Y-650D01*
X10488Y-575D02*Y-800D01*
Y-575D02*X10563Y-500D01*
X10713D01*
X10413D02*X10488Y-575D01*
X10893Y-200D02*Y-725D01*
X10968Y-800D01*
X11118Y-350D02*Y-425D01*
Y-575D02*Y-800D01*
X11343Y-575D02*Y-800D01*
Y-575D02*X11418Y-500D01*
X11493D01*
X11568Y-575D01*
Y-800D01*
X11268Y-500D02*X11343Y-575D01*
X11823Y-800D02*X12048D01*
X11748Y-725D02*X11823Y-800D01*
X11748Y-575D02*Y-725D01*
Y-575D02*X11823Y-500D01*
X11973D01*
X12048Y-575D01*
X11748Y-650D02*X12048D01*
Y-575D02*Y-650D01*
X12499Y-575D02*Y-725D01*
Y-575D02*X12574Y-500D01*
X12724D01*
X12799Y-575D01*
Y-725D01*
X12724Y-800D02*X12799Y-725D01*
X12574Y-800D02*X12724D01*
X12499Y-725D02*X12574Y-800D01*
X13054Y-275D02*Y-800D01*
Y-275D02*X13129Y-200D01*
X13204D01*
X12979Y-500D02*X13129D01*
X13699Y-200D02*Y-725D01*
X13774Y-800D01*
X13624Y-425D02*X13774D01*
X13924Y-200D02*Y-800D01*
Y-575D02*X13999Y-500D01*
X14149D01*
X14224Y-575D01*
Y-800D01*
X14404Y-350D02*Y-425D01*
Y-575D02*Y-800D01*
X14629D02*X14854D01*
X14929Y-725D01*
X14854Y-650D02*X14929Y-725D01*
X14629Y-650D02*X14854D01*
X14554Y-575D02*X14629Y-650D01*
X14554Y-575D02*X14629Y-500D01*
X14854D01*
X14929Y-575D01*
X14554Y-725D02*X14629Y-800D01*
X15454D02*X15604D01*
X15529Y-200D02*Y-800D01*
X15379Y-350D02*X15529Y-200D01*
X15785Y-725D02*X15860Y-800D01*
X15785Y-275D02*Y-725D01*
Y-275D02*X15860Y-200D01*
X16010D01*
X16085Y-275D01*
Y-725D01*
X16010Y-800D02*X16085Y-725D01*
X15860Y-800D02*X16010D01*
X15785Y-650D02*X16085Y-350D01*
X16610Y-575D02*Y-800D01*
Y-575D02*X16685Y-500D01*
X16760D01*
X16835Y-575D01*
Y-800D01*
Y-575D02*X16910Y-500D01*
X16985D01*
X17060Y-575D01*
Y-800D01*
X16535Y-500D02*X16610Y-575D01*
X17240Y-350D02*Y-425D01*
Y-575D02*Y-800D01*
X17390Y-200D02*Y-725D01*
X17465Y-800D01*
X17960Y-575D02*Y-800D01*
Y-575D02*X18035Y-500D01*
X18185D01*
X17885D02*X17960Y-575D01*
X18440Y-800D02*X18665D01*
X18365Y-725D02*X18440Y-800D01*
X18365Y-575D02*Y-725D01*
Y-575D02*X18440Y-500D01*
X18590D01*
X18665Y-575D01*
X18365Y-650D02*X18665D01*
Y-575D02*Y-650D01*
X18921Y-500D02*X19146D01*
X18846Y-575D02*X18921Y-500D01*
X18846Y-575D02*Y-725D01*
X18921Y-800D01*
X19146D01*
X19401Y-200D02*Y-725D01*
X19476Y-800D01*
X19326Y-425D02*X19476D01*
X19851Y-500D02*X19926Y-575D01*
X19701Y-500D02*X19851D01*
X19626Y-575D02*X19701Y-500D01*
X19626Y-575D02*Y-725D01*
X19701Y-800D01*
X19926Y-500D02*Y-725D01*
X20001Y-800D01*
X19701D02*X19851D01*
X19926Y-725D01*
X20256Y-575D02*Y-800D01*
Y-575D02*X20331Y-500D01*
X20406D01*
X20481Y-575D01*
Y-800D01*
X20181Y-500D02*X20256Y-575D01*
X20886Y-500D02*X20961Y-575D01*
X20736Y-500D02*X20886D01*
X20661Y-575D02*X20736Y-500D01*
X20661Y-575D02*Y-725D01*
X20736Y-800D01*
X20886D01*
X20961Y-725D01*
X20661Y-950D02*X20736Y-1025D01*
X20886D01*
X20961Y-950D01*
Y-500D02*Y-950D01*
X21141Y-200D02*Y-725D01*
X21216Y-800D01*
X21441D02*X21666D01*
X21366Y-725D02*X21441Y-800D01*
X21366Y-575D02*Y-725D01*
Y-575D02*X21441Y-500D01*
X21591D01*
X21666Y-575D01*
X21366Y-650D02*X21666D01*
Y-575D02*Y-650D01*
X22117Y-500D02*X22417D01*
X22867Y-725D02*X22942Y-800D01*
X22867Y-275D02*Y-725D01*
Y-275D02*X22942Y-200D01*
X23092D01*
X23167Y-275D01*
Y-725D01*
X23092Y-800D02*X23167Y-725D01*
X22942Y-800D02*X23092D01*
X22867Y-650D02*X23167Y-350D01*
X23347Y-950D02*X23497Y-800D01*
X23677Y-725D02*X23752Y-800D01*
X23677Y-275D02*Y-725D01*
Y-275D02*X23752Y-200D01*
X23902D01*
X23977Y-275D01*
Y-725D01*
X23902Y-800D02*X23977Y-725D01*
X23752Y-800D02*X23902D01*
X23677Y-650D02*X23977Y-350D01*
X24502Y-200D02*Y-725D01*
X24577Y-800D01*
X24427Y-425D02*X24577D01*
X24727Y-575D02*Y-725D01*
Y-575D02*X24802Y-500D01*
X24952D01*
X25027Y-575D01*
Y-725D01*
X24952Y-800D02*X25027Y-725D01*
X24802Y-800D02*X24952D01*
X24727Y-725D02*X24802Y-800D01*
X25552D02*X25702D01*
X25627Y-200D02*Y-800D01*
X25477Y-350D02*X25627Y-200D01*
X25883D02*X26183D01*
X25883D02*Y-500D01*
X25958Y-425D01*
X26108D01*
X26183Y-500D01*
Y-725D01*
X26108Y-800D02*X26183Y-725D01*
X25958Y-800D02*X26108D01*
X25883Y-725D02*X25958Y-800D01*
X26363D02*X26738Y-425D01*
Y-200D02*Y-425D01*
X26363Y-200D02*X26738D01*
X26918D02*X27218D01*
X26918D02*Y-500D01*
X26993Y-425D01*
X27143D01*
X27218Y-500D01*
Y-725D01*
X27143Y-800D02*X27218Y-725D01*
X26993Y-800D02*X27143D01*
X26918Y-725D02*X26993Y-800D01*
X27398Y-950D02*X27548Y-800D01*
X27728D02*X28028Y-500D01*
Y-275D02*Y-500D01*
X27953Y-200D02*X28028Y-275D01*
X27803Y-200D02*X27953D01*
X27728Y-275D02*X27803Y-200D01*
X27728Y-275D02*Y-425D01*
X27803Y-500D01*
X28028D01*
X28208Y-800D02*X28508Y-500D01*
Y-275D02*Y-500D01*
X28433Y-200D02*X28508Y-275D01*
X28283Y-200D02*X28433D01*
X28208Y-275D02*X28283Y-200D01*
X28208Y-275D02*Y-425D01*
X28283Y-500D01*
X28508D01*
X28689Y-200D02*X28989D01*
X28689D02*Y-500D01*
X28764Y-425D01*
X28914D01*
X28989Y-500D01*
Y-725D01*
X28914Y-800D02*X28989Y-725D01*
X28764Y-800D02*X28914D01*
X28689Y-725D02*X28764Y-800D01*
X29514Y-575D02*Y-800D01*
Y-575D02*X29589Y-500D01*
X29664D01*
X29739Y-575D01*
Y-800D01*
Y-575D02*X29814Y-500D01*
X29889D01*
X29964Y-575D01*
Y-800D01*
X29439Y-500D02*X29514Y-575D01*
X30144Y-350D02*Y-425D01*
Y-575D02*Y-800D01*
X30294Y-200D02*Y-725D01*
X30369Y-800D01*
X30594D02*X30819D01*
X30894Y-725D01*
X30819Y-650D02*X30894Y-725D01*
X30594Y-650D02*X30819D01*
X30519Y-575D02*X30594Y-650D01*
X30519Y-575D02*X30594Y-500D01*
X30819D01*
X30894Y-575D01*
X30519Y-725D02*X30594Y-800D01*
G04 Text: Date: Wed Dec  8 04:36:31 2004 UTC *
X20075Y12950D02*Y12350D01*
X20300Y12950D02*X20375Y12875D01*
Y12425D01*
X20300Y12350D02*X20375Y12425D01*
X20000Y12350D02*X20300D01*
X20000Y12950D02*X20300D01*
X20780Y12650D02*X20855Y12575D01*
X20630Y12650D02*X20780D01*
X20555Y12575D02*X20630Y12650D01*
X20555Y12575D02*Y12425D01*
X20630Y12350D01*
X20855Y12650D02*Y12425D01*
X20930Y12350D01*
X20630D02*X20780D01*
X20855Y12425D01*
X21185Y12950D02*Y12425D01*
X21260Y12350D01*
X21110Y12725D02*X21260D01*
X21485Y12350D02*X21710D01*
X21410Y12425D02*X21485Y12350D01*
X21410Y12575D02*Y12425D01*
Y12575D02*X21485Y12650D01*
X21635D01*
X21710Y12575D01*
X21410Y12500D02*X21710D01*
Y12575D02*Y12500D01*
X21890Y12725D02*X21965D01*
X21890Y12575D02*X21965D01*
X22415Y12950D02*Y12350D01*
X22640Y12575D01*
X22865Y12350D01*
Y12950D02*Y12350D01*
X23120D02*X23345D01*
X23045Y12425D02*X23120Y12350D01*
X23045Y12575D02*Y12425D01*
Y12575D02*X23120Y12650D01*
X23270D01*
X23345Y12575D01*
X23045Y12500D02*X23345D01*
Y12575D02*Y12500D01*
X23826Y12950D02*Y12350D01*
X23751D02*X23826Y12425D01*
X23601Y12350D02*X23751D01*
X23526Y12425D02*X23601Y12350D01*
X23526Y12575D02*Y12425D01*
Y12575D02*X23601Y12650D01*
X23751D01*
X23826Y12575D01*
X24351Y12950D02*Y12350D01*
X24576Y12950D02*X24651Y12875D01*
Y12425D01*
X24576Y12350D02*X24651Y12425D01*
X24276Y12350D02*X24576D01*
X24276Y12950D02*X24576D01*
X24906Y12350D02*X25131D01*
X24831Y12425D02*X24906Y12350D01*
X24831Y12575D02*Y12425D01*
Y12575D02*X24906Y12650D01*
X25056D01*
X25131Y12575D01*
X24831Y12500D02*X25131D01*
Y12575D02*Y12500D01*
X25386Y12650D02*X25611D01*
X25311Y12575D02*X25386Y12650D01*
X25311Y12575D02*Y12425D01*
X25386Y12350D01*
X25611D01*
X26331Y12425D02*X26406Y12350D01*
X26331Y12575D02*Y12425D01*
Y12575D02*X26406Y12650D01*
X26556D01*
X26631Y12575D01*
Y12425D01*
X26556Y12350D02*X26631Y12425D01*
X26406Y12350D02*X26556D01*
X26331Y12725D02*X26406Y12650D01*
X26331Y12875D02*Y12725D01*
Y12875D02*X26406Y12950D01*
X26556D01*
X26631Y12875D01*
Y12725D01*
X26556Y12650D02*X26631Y12725D01*
X27081Y12425D02*X27156Y12350D01*
X27081Y12875D02*Y12425D01*
Y12875D02*X27156Y12950D01*
X27306D01*
X27381Y12875D01*
Y12425D01*
X27306Y12350D02*X27381Y12425D01*
X27156Y12350D02*X27306D01*
X27081Y12500D02*X27381Y12800D01*
X27561Y12650D02*X27861Y12950D01*
X27561Y12650D02*X27936D01*
X27861Y12950D02*Y12350D01*
X28117Y12725D02*X28192D01*
X28117Y12575D02*X28192D01*
X28372Y12875D02*X28447Y12950D01*
X28597D01*
X28672Y12875D01*
Y12425D01*
X28597Y12350D02*X28672Y12425D01*
X28447Y12350D02*X28597D01*
X28372Y12425D02*X28447Y12350D01*
Y12650D02*X28672D01*
X29077Y12950D02*X29152Y12875D01*
X28927Y12950D02*X29077D01*
X28852Y12875D02*X28927Y12950D01*
X28852Y12875D02*Y12425D01*
X28927Y12350D01*
X29077Y12650D02*X29152Y12575D01*
X28852Y12650D02*X29077D01*
X28927Y12350D02*X29077D01*
X29152Y12425D01*
Y12575D02*Y12425D01*
X29332Y12725D02*X29407D01*
X29332Y12575D02*X29407D01*
X29587Y12875D02*X29662Y12950D01*
X29812D01*
X29887Y12875D01*
Y12425D01*
X29812Y12350D02*X29887Y12425D01*
X29662Y12350D02*X29812D01*
X29587Y12425D02*X29662Y12350D01*
Y12650D02*X29887D01*
X30142Y12350D02*X30292D01*
X30217Y12950D02*Y12350D01*
X30067Y12800D02*X30217Y12950D01*
X30743Y12875D02*X30818Y12950D01*
X31043D01*
X31118Y12875D01*
Y12725D01*
X30743Y12350D02*X31118Y12725D01*
X30743Y12350D02*X31118D01*
X31298Y12425D02*X31373Y12350D01*
X31298Y12875D02*Y12425D01*
Y12875D02*X31373Y12950D01*
X31523D01*
X31598Y12875D01*
Y12425D01*
X31523Y12350D02*X31598Y12425D01*
X31373Y12350D02*X31523D01*
X31298Y12500D02*X31598Y12800D01*
X31778Y12425D02*X31853Y12350D01*
X31778Y12875D02*Y12425D01*
Y12875D02*X31853Y12950D01*
X32003D01*
X32078Y12875D01*
Y12425D01*
X32003Y12350D02*X32078Y12425D01*
X31853Y12350D02*X32003D01*
X31778Y12500D02*X32078Y12800D01*
X32258Y12650D02*X32558Y12950D01*
X32258Y12650D02*X32633D01*
X32558Y12950D02*Y12350D01*
X33083Y12950D02*Y12425D01*
X33158Y12350D01*
X33308D01*
X33383Y12425D01*
Y12950D02*Y12425D01*
X33563Y12950D02*X33863D01*
X33713D02*Y12350D01*
X34118D02*X34343D01*
X34043Y12425D02*X34118Y12350D01*
X34043Y12875D02*Y12425D01*
Y12875D02*X34118Y12950D01*
X34343D01*
G04 Text: Author: Alan Garfield *
X20000Y14375D02*Y13850D01*
Y14375D02*X20075Y14450D01*
X20300D01*
X20375Y14375D01*
Y13850D01*
X20000Y14150D02*X20375D01*
X20555D02*Y13925D01*
X20630Y13850D01*
X20780D01*
X20855Y13925D01*
Y14150D02*Y13925D01*
X21110Y14450D02*Y13925D01*
X21185Y13850D01*
X21035Y14225D02*X21185D01*
X21335Y14450D02*Y13850D01*
Y14075D02*X21410Y14150D01*
X21560D01*
X21635Y14075D01*
Y13850D01*
X21815Y14075D02*Y13925D01*
Y14075D02*X21890Y14150D01*
X22040D01*
X22115Y14075D01*
Y13925D01*
X22040Y13850D02*X22115Y13925D01*
X21890Y13850D02*X22040D01*
X21815Y13925D02*X21890Y13850D01*
X22370Y14075D02*Y13850D01*
Y14075D02*X22445Y14150D01*
X22595D01*
X22295D02*X22370Y14075D01*
X22775Y14225D02*X22850D01*
X22775Y14075D02*X22850D01*
X23301Y14375D02*Y13850D01*
Y14375D02*X23376Y14450D01*
X23601D01*
X23676Y14375D01*
Y13850D01*
X23301Y14150D02*X23676D01*
X23856Y14450D02*Y13925D01*
X23931Y13850D01*
X24306Y14150D02*X24381Y14075D01*
X24156Y14150D02*X24306D01*
X24081Y14075D02*X24156Y14150D01*
X24081Y14075D02*Y13925D01*
X24156Y13850D01*
X24381Y14150D02*Y13925D01*
X24456Y13850D01*
X24156D02*X24306D01*
X24381Y13925D01*
X24711Y14075D02*Y13850D01*
Y14075D02*X24786Y14150D01*
X24861D01*
X24936Y14075D01*
Y13850D01*
X24636Y14150D02*X24711Y14075D01*
X25686Y14450D02*X25761Y14375D01*
X25461Y14450D02*X25686D01*
X25386Y14375D02*X25461Y14450D01*
X25386Y14375D02*Y13925D01*
X25461Y13850D01*
X25686D01*
X25761Y13925D01*
Y14075D02*Y13925D01*
X25686Y14150D02*X25761Y14075D01*
X25536Y14150D02*X25686D01*
X26166D02*X26241Y14075D01*
X26016Y14150D02*X26166D01*
X25941Y14075D02*X26016Y14150D01*
X25941Y14075D02*Y13925D01*
X26016Y13850D01*
X26241Y14150D02*Y13925D01*
X26316Y13850D01*
X26016D02*X26166D01*
X26241Y13925D01*
X26571Y14075D02*Y13850D01*
Y14075D02*X26646Y14150D01*
X26796D01*
X26496D02*X26571Y14075D01*
X27052Y14375D02*Y13850D01*
Y14375D02*X27127Y14450D01*
X27202D01*
X26977Y14150D02*X27127D01*
X27352Y14300D02*Y14225D01*
Y14075D02*Y13850D01*
X27577D02*X27802D01*
X27502Y13925D02*X27577Y13850D01*
X27502Y14075D02*Y13925D01*
Y14075D02*X27577Y14150D01*
X27727D01*
X27802Y14075D01*
X27502Y14000D02*X27802D01*
Y14075D02*Y14000D01*
X27982Y14450D02*Y13925D01*
X28057Y13850D01*
X28507Y14450D02*Y13850D01*
X28432D02*X28507Y13925D01*
X28282Y13850D02*X28432D01*
X28207Y13925D02*X28282Y13850D01*
X28207Y14075D02*Y13925D01*
Y14075D02*X28282Y14150D01*
X28432D01*
X28507Y14075D01*
G04 Text: Title: (unknown) - Fabrication Drawing *
X20000Y15950D02*X20300D01*
X20150D02*Y15350D01*
X20480Y15800D02*Y15725D01*
Y15575D02*Y15350D01*
X20705Y15950D02*Y15425D01*
X20780Y15350D01*
X20630Y15725D02*X20780D01*
X20930Y15950D02*Y15425D01*
X21005Y15350D01*
X21230D02*X21455D01*
X21155Y15425D02*X21230Y15350D01*
X21155Y15575D02*Y15425D01*
Y15575D02*X21230Y15650D01*
X21380D01*
X21455Y15575D01*
X21155Y15500D02*X21455D01*
Y15575D02*Y15500D01*
X21635Y15725D02*X21710D01*
X21635Y15575D02*X21710D01*
X22160Y15425D02*X22235Y15350D01*
X22160Y15875D02*X22235Y15950D01*
X22160Y15875D02*Y15425D01*
X22416Y15650D02*Y15425D01*
X22491Y15350D01*
X22641D01*
X22716Y15425D01*
Y15650D02*Y15425D01*
X22971Y15575D02*Y15350D01*
Y15575D02*X23046Y15650D01*
X23121D01*
X23196Y15575D01*
Y15350D01*
X22896Y15650D02*X22971Y15575D01*
X23376Y15950D02*Y15350D01*
Y15575D02*X23601Y15350D01*
X23376Y15575D02*X23526Y15725D01*
X23856Y15575D02*Y15350D01*
Y15575D02*X23931Y15650D01*
X24006D01*
X24081Y15575D01*
Y15350D01*
X23781Y15650D02*X23856Y15575D01*
X24261D02*Y15425D01*
Y15575D02*X24336Y15650D01*
X24486D01*
X24561Y15575D01*
Y15425D01*
X24486Y15350D02*X24561Y15425D01*
X24336Y15350D02*X24486D01*
X24261Y15425D02*X24336Y15350D01*
X24741Y15650D02*Y15425D01*
X24816Y15350D01*
X24891D01*
X24966Y15425D01*
Y15650D02*Y15425D01*
X25041Y15350D01*
X25116D01*
X25191Y15425D01*
Y15650D02*Y15425D01*
X25446Y15575D02*Y15350D01*
Y15575D02*X25521Y15650D01*
X25596D01*
X25671Y15575D01*
Y15350D01*
X25371Y15650D02*X25446Y15575D01*
X25852Y15950D02*X25927Y15875D01*
Y15425D01*
X25852Y15350D02*X25927Y15425D01*
X26377Y15650D02*X26677D01*
X27127Y15950D02*Y15350D01*
Y15950D02*X27427D01*
X27127Y15650D02*X27352D01*
X27832D02*X27907Y15575D01*
X27682Y15650D02*X27832D01*
X27607Y15575D02*X27682Y15650D01*
X27607Y15575D02*Y15425D01*
X27682Y15350D01*
X27907Y15650D02*Y15425D01*
X27982Y15350D01*
X27682D02*X27832D01*
X27907Y15425D01*
X28162Y15950D02*Y15350D01*
Y15425D02*X28237Y15350D01*
X28387D01*
X28462Y15425D01*
Y15575D02*Y15425D01*
X28387Y15650D02*X28462Y15575D01*
X28237Y15650D02*X28387D01*
X28162Y15575D02*X28237Y15650D01*
X28717Y15575D02*Y15350D01*
Y15575D02*X28792Y15650D01*
X28942D01*
X28642D02*X28717Y15575D01*
X29123Y15800D02*Y15725D01*
Y15575D02*Y15350D01*
X29348Y15650D02*X29573D01*
X29273Y15575D02*X29348Y15650D01*
X29273Y15575D02*Y15425D01*
X29348Y15350D01*
X29573D01*
X29978Y15650D02*X30053Y15575D01*
X29828Y15650D02*X29978D01*
X29753Y15575D02*X29828Y15650D01*
X29753Y15575D02*Y15425D01*
X29828Y15350D01*
X30053Y15650D02*Y15425D01*
X30128Y15350D01*
X29828D02*X29978D01*
X30053Y15425D01*
X30383Y15950D02*Y15425D01*
X30458Y15350D01*
X30308Y15725D02*X30458D01*
X30608Y15800D02*Y15725D01*
Y15575D02*Y15350D01*
X30758Y15575D02*Y15425D01*
Y15575D02*X30833Y15650D01*
X30983D01*
X31058Y15575D01*
Y15425D01*
X30983Y15350D02*X31058Y15425D01*
X30833Y15350D02*X30983D01*
X30758Y15425D02*X30833Y15350D01*
X31313Y15575D02*Y15350D01*
Y15575D02*X31388Y15650D01*
X31463D01*
X31538Y15575D01*
Y15350D01*
X31238Y15650D02*X31313Y15575D01*
X32064Y15950D02*Y15350D01*
X32289Y15950D02*X32364Y15875D01*
Y15425D01*
X32289Y15350D02*X32364Y15425D01*
X31989Y15350D02*X32289D01*
X31989Y15950D02*X32289D01*
X32619Y15575D02*Y15350D01*
Y15575D02*X32694Y15650D01*
X32844D01*
X32544D02*X32619Y15575D01*
X33249Y15650D02*X33324Y15575D01*
X33099Y15650D02*X33249D01*
X33024Y15575D02*X33099Y15650D01*
X33024Y15575D02*Y15425D01*
X33099Y15350D01*
X33324Y15650D02*Y15425D01*
X33399Y15350D01*
X33099D02*X33249D01*
X33324Y15425D01*
X33579Y15650D02*Y15425D01*
X33654Y15350D01*
X33729D01*
X33804Y15425D01*
Y15650D02*Y15425D01*
X33879Y15350D01*
X33954D01*
X34029Y15425D01*
Y15650D02*Y15425D01*
X34209Y15800D02*Y15725D01*
Y15575D02*Y15350D01*
X34434Y15575D02*Y15350D01*
Y15575D02*X34509Y15650D01*
X34584D01*
X34659Y15575D01*
Y15350D01*
X34359Y15650D02*X34434Y15575D01*
X35064Y15650D02*X35139Y15575D01*
X34914Y15650D02*X35064D01*
X34839Y15575D02*X34914Y15650D01*
X34839Y15575D02*Y15425D01*
X34914Y15350D01*
X35064D01*
X35139Y15425D01*
X34839Y15200D02*X34914Y15125D01*
X35064D01*
X35139Y15200D01*
Y15650D02*Y15200D01*
M02*
