G04 Title: (unknown), layergroup #1 *
G04 Creator: pcb-bin 1.99p *
G04 CreationDate: Wed Dec  8 04:36:31 2004 UTC *
G04 For: alan *
G04 Format: Gerber/RS-274X *
G04 PCB-Dimensions: 157500 99500 *
G04 PCB-Coordinate-Origin: lower left *
%MOIN*%
%FSLAX24Y24*%
G04 contains layers solder (0) GND-sldr (1) Vcc-sldr (2) *
%IPPOS*%
%ADD11C,0.0400*%
%ADD12R,0.0500X0.0500*%
%ADD13C,0.0500*%
%ADD14C,0.0200*%
%ADD15C,0.0080*%
%ADD16C,0.0800*%
%ADD17C,0.0100*%
%ADD18R,0.0600X0.0600*%
%ADD19C,0.0600*%
%ADD20C,0.0150*%
%ADD21C,0.0110*%
%LNGROUP_0*%
%LPD*%
G01X0Y0D02*
G54D11*X15200Y9050D02*Y4350D01*
X7800Y2850D02*X8700Y1950D01*
X12000Y950D02*X11500Y450D01*
X12000Y1650D02*Y950D01*
X14000Y1150D02*Y4150D01*
X9600Y4050D02*X12000Y1650D01*
X8300Y4350D02*X11000Y1650D01*
X6900Y4750D02*X10000Y1650D01*
X5200Y1550D02*X1500D01*
X5600Y3550D02*X7700Y1450D01*
X15000Y4150D02*Y1150D01*
X14000Y4150D02*X14500Y4650D01*
X11000Y3650D02*X13000Y1650D01*
X11000D02*Y1150D01*
X1000Y8750D02*X7600D01*
X1900Y7350D02*X6300D01*
X13700D02*X11600D01*
X1500Y5750D02*X2100Y6350D01*
X10700D01*
X11700Y7350D01*
X12300Y5350D02*X13700D01*
X4200D02*X5600D01*
Y3550D02*X1500D01*
X13000Y1650D02*Y1150D01*
X10300Y7350D02*X11300Y8350D01*
X500Y8250D02*X1000Y8750D01*
X500Y4550D02*Y8250D01*
X14500Y7950D02*Y4650D01*
X7600Y7350D02*X9800Y9550D01*
X11300Y8350D02*X14100D01*
X14500Y7950D01*
X1500Y3550D02*X500Y4550D01*
X7700Y1450D02*Y1150D01*
X9800Y9550D02*X14700D01*
X15200Y9050D01*
X6400Y450D02*X5300Y1550D01*
X6900Y5350D02*Y4750D01*
X8700Y1950D02*Y1150D01*
X8300Y5350D02*Y4350D01*
X10000Y1650D02*Y1150D01*
X9600Y5350D02*Y4050D01*
X1500Y7750D02*X1900Y7350D01*
X11000Y5350D02*Y3650D01*
X15200Y4350D02*X15000Y4150D01*
X8900Y7350D02*X10300Y8750D01*
X11500Y450D02*X6400D01*
G04 Text: LMD18200 Adapter *
G54D15*X400Y350D02*Y750D01*
X600D01*
X720Y350D02*Y750D01*
Y350D02*X870Y500D01*
X1020Y350D01*
Y750D01*
X1190Y350D02*Y750D01*
X1340Y350D02*X1390Y400D01*
Y700D01*
X1340Y750D02*X1390Y700D01*
X1140Y750D02*X1340D01*
X1140Y350D02*X1340D01*
X1560Y750D02*X1660D01*
X1610Y350D02*Y750D01*
X1510Y450D02*X1610Y350D01*
X1780Y700D02*X1830Y750D01*
X1780Y600D02*Y700D01*
Y600D02*X1830Y550D01*
X1930D01*
X1980Y600D01*
Y700D01*
X1930Y750D02*X1980Y700D01*
X1830Y750D02*X1930D01*
X1780Y500D02*X1830Y550D01*
X1780Y400D02*Y500D01*
Y400D02*X1830Y350D01*
X1930D01*
X1980Y400D01*
Y500D01*
X1930Y550D02*X1980Y500D01*
X2100Y400D02*X2150Y350D01*
X2300D01*
X2350Y400D01*
Y500D01*
X2100Y750D02*X2350Y500D01*
X2100Y750D02*X2350D01*
X2470Y700D02*X2520Y750D01*
X2470Y400D02*Y700D01*
Y400D02*X2520Y350D01*
X2620D01*
X2670Y400D01*
Y700D01*
X2620Y750D02*X2670Y700D01*
X2520Y750D02*X2620D01*
X2470Y650D02*X2670Y450D01*
X2790Y700D02*X2840Y750D01*
X2790Y400D02*Y700D01*
Y400D02*X2840Y350D01*
X2940D01*
X2990Y400D01*
Y700D01*
X2940Y750D02*X2990Y700D01*
X2840Y750D02*X2940D01*
X2790Y650D02*X2990Y450D01*
X3290Y400D02*Y750D01*
Y400D02*X3340Y350D01*
X3490D01*
X3540Y400D01*
Y750D01*
X3290Y550D02*X3540D01*
X3860Y350D02*Y750D01*
X3810D02*X3860Y700D01*
X3710Y750D02*X3810D01*
X3660Y700D02*X3710Y750D01*
X3660Y600D02*Y700D01*
Y600D02*X3710Y550D01*
X3810D01*
X3860Y600D01*
X4131Y550D02*X4181Y600D01*
X4031Y550D02*X4131D01*
X3981Y600D02*X4031Y550D01*
X3981Y600D02*Y700D01*
X4031Y750D01*
X4181Y550D02*Y700D01*
X4231Y750D01*
X4031D02*X4131D01*
X4181Y700D01*
X4401Y600D02*Y900D01*
X4351Y550D02*X4401Y600D01*
X4451Y550D01*
X4551D01*
X4601Y600D01*
Y700D01*
X4551Y750D02*X4601Y700D01*
X4451Y750D02*X4551D01*
X4401Y700D02*X4451Y750D01*
X4771Y350D02*Y700D01*
X4821Y750D01*
X4721Y500D02*X4821D01*
X4971Y750D02*X5121D01*
X4921Y700D02*X4971Y750D01*
X4921Y600D02*Y700D01*
Y600D02*X4971Y550D01*
X5071D01*
X5121Y600D01*
X4921Y650D02*X5121D01*
Y600D02*Y650D01*
X5291Y600D02*Y750D01*
Y600D02*X5341Y550D01*
X5441D01*
X5241D02*X5291Y600D01*
G04 Text: + *
G54D21*X300Y3502D02*X852D01*
X576Y3226D02*Y3778D01*
G04 Text: (C) Alan Garfield 12/04 *
G54D15*X400Y9600D02*X450Y9650D01*
X400Y9300D02*X450Y9250D01*
X400Y9300D02*Y9600D01*
X620Y9650D02*X770D01*
X570Y9600D02*X620Y9650D01*
X570Y9300D02*Y9600D01*
Y9300D02*X620Y9250D01*
X770D01*
X890D02*X940Y9300D01*
Y9600D01*
X890Y9650D02*X940Y9600D01*
X1240Y9300D02*Y9650D01*
Y9300D02*X1290Y9250D01*
X1440D01*
X1490Y9300D01*
Y9650D01*
X1240Y9450D02*X1490D01*
X1610Y9250D02*Y9600D01*
X1660Y9650D01*
X1910Y9450D02*X1960Y9500D01*
X1810Y9450D02*X1910D01*
X1760Y9500D02*X1810Y9450D01*
X1760Y9500D02*Y9600D01*
X1810Y9650D01*
X1960Y9450D02*Y9600D01*
X2010Y9650D01*
X1810D02*X1910D01*
X1960Y9600D01*
X2180Y9500D02*Y9650D01*
Y9500D02*X2230Y9450D01*
X2280D01*
X2330Y9500D01*
Y9650D01*
X2130Y9450D02*X2180Y9500D01*
X2830Y9250D02*X2880Y9300D01*
X2680Y9250D02*X2830D01*
X2630Y9300D02*X2680Y9250D01*
X2630Y9300D02*Y9600D01*
X2680Y9650D01*
X2830D01*
X2880Y9600D01*
Y9500D02*Y9600D01*
X2830Y9450D02*X2880Y9500D01*
X2730Y9450D02*X2830D01*
X3150D02*X3200Y9500D01*
X3050Y9450D02*X3150D01*
X3000Y9500D02*X3050Y9450D01*
X3000Y9500D02*Y9600D01*
X3050Y9650D01*
X3200Y9450D02*Y9600D01*
X3250Y9650D01*
X3050D02*X3150D01*
X3200Y9600D01*
X3420Y9500D02*Y9650D01*
Y9500D02*X3470Y9450D01*
X3570D01*
X3370D02*X3420Y9500D01*
X3741Y9300D02*Y9650D01*
Y9300D02*X3791Y9250D01*
X3841D01*
X3691Y9450D02*X3791D01*
X3941Y9350D02*Y9400D01*
Y9500D02*Y9650D01*
X4091D02*X4241D01*
X4041Y9600D02*X4091Y9650D01*
X4041Y9500D02*Y9600D01*
Y9500D02*X4091Y9450D01*
X4191D01*
X4241Y9500D01*
X4041Y9550D02*X4241D01*
Y9500D02*Y9550D01*
X4361Y9250D02*Y9600D01*
X4411Y9650D01*
X4711Y9250D02*Y9650D01*
X4661D02*X4711Y9600D01*
X4561Y9650D02*X4661D01*
X4511Y9600D02*X4561Y9650D01*
X4511Y9500D02*Y9600D01*
Y9500D02*X4561Y9450D01*
X4661D01*
X4711Y9500D01*
X5061Y9650D02*X5161D01*
X5111Y9250D02*Y9650D01*
X5011Y9350D02*X5111Y9250D01*
X5281Y9300D02*X5331Y9250D01*
X5481D01*
X5531Y9300D01*
Y9400D01*
X5281Y9650D02*X5531Y9400D01*
X5281Y9650D02*X5531D01*
X5651Y9600D02*X5951Y9300D01*
X6071Y9600D02*X6121Y9650D01*
X6071Y9300D02*Y9600D01*
Y9300D02*X6121Y9250D01*
X6221D01*
X6271Y9300D01*
Y9600D01*
X6221Y9650D02*X6271Y9600D01*
X6121Y9650D02*X6221D01*
X6071Y9550D02*X6271Y9350D01*
X6391Y9450D02*X6591Y9250D01*
X6391Y9450D02*X6641D01*
X6591Y9250D02*Y9650D01*
G04 Text: - *
G54D21*X300Y1602D02*X852D01*
G54D12*X7800Y2850D03*
G54D13*X11800D03*
G54D16*X1500Y5750D03*
Y7750D03*
G54D18*X10000Y1150D03*
G54D19*X11000D03*
X12000D03*
X13000D03*
X14000D03*
X15000D03*
X4200Y7350D03*
Y5350D03*
G54D16*X5600D03*
X7610Y7350D03*
X10960Y5350D03*
X6270Y7350D03*
X6940Y5350D03*
X10290Y7350D03*
X8950D03*
X8280Y5350D03*
X11630Y7350D03*
X9620Y5350D03*
X12300D03*
G54D19*X13700D03*
Y7350D03*
G54D18*X5300Y3550D03*
G54D19*Y1550D03*
G54D16*X1500D03*
Y3550D03*
G54D18*X7700Y1150D03*
G54D19*X8700D03*
X7600Y8750D03*
X10300D03*
M02*
