G04 Title: (unknown), silkscreen, component side *
G04 Creator: pcb-bin 1.99p *
G04 CreationDate: Wed Dec  8 04:36:31 2004 UTC *
G04 For: alan *
G04 Format: Gerber/RS-274X *
G04 PCB-Dimensions: 157500 99500 *
G04 PCB-Coordinate-Origin: lower left *
%MOIN*%
%FSLAX24Y24*%
%IPPOS*%
%ADD11C,0.0400*%
%ADD12R,0.0500X0.0500*%
%ADD13C,0.0500*%
%ADD14C,0.0200*%
%ADD15C,0.0080*%
%ADD16C,0.0800*%
%ADD17C,0.0100*%
%ADD18R,0.0600X0.0600*%
%ADD19C,0.0600*%
%ADD20C,0.0150*%
%ADD21C,0.0110*%
%LNGROUP_1*%
%LPD*%
G01X0Y0D02*
G54D14*X10800Y2850D02*X11800D01*
X7800D02*X8800D01*
Y3350D02*Y2350D01*
X10800D01*
Y3350D02*Y2350D01*
X8800Y3350D02*X10800D01*
G04 Text: R1 *
G54D15*X9000Y3050D02*X9200D01*
X9250Y3000D01*
Y2900D01*
X9200Y2850D02*X9250Y2900D01*
X9050Y2850D02*X9200D01*
X9050Y3050D02*Y2650D01*
Y2850D02*X9250Y2650D01*
X9420D02*X9520D01*
X9470Y3050D02*Y2650D01*
X9370Y2950D02*X9470Y3050D01*
G54D17*X100Y8750D02*X3100D01*
X100Y4750D02*X3100D01*
X100Y8750D02*Y4750D01*
X3100Y8750D02*Y4750D01*
X2900Y8750D02*Y4750D01*
G04 Text: CONN1 *
G54D15*X650Y8850D02*X800D01*
X600Y8900D02*X650Y8850D01*
X600Y9200D02*Y8900D01*
Y9200D02*X650Y9250D01*
X800D01*
X920Y9200D02*Y8900D01*
Y9200D02*X970Y9250D01*
X1070D01*
X1120Y9200D01*
Y8900D01*
X1070Y8850D02*X1120Y8900D01*
X970Y8850D02*X1070D01*
X920Y8900D02*X970Y8850D01*
X1240Y9250D02*Y8850D01*
Y9250D02*Y9200D01*
X1490Y8950D01*
Y9250D02*Y8850D01*
X1610Y9250D02*Y8850D01*
Y9250D02*Y9200D01*
X1860Y8950D01*
Y9250D02*Y8850D01*
X2030D02*X2130D01*
X2080Y9250D02*Y8850D01*
X1980Y9150D02*X2080Y9250D01*
G54D17*X9500Y1650D02*X10500D01*
Y650D01*
G54D14*X9500Y1650D02*Y650D01*
Y1650D02*X15500D01*
Y650D01*
X9500D02*X15500D01*
G04 Text: CONN2 *
G54D15*X13650Y1850D02*X13800D01*
X13600Y1900D02*X13650Y1850D01*
X13600Y2200D02*Y1900D01*
Y2200D02*X13650Y2250D01*
X13800D01*
X13920Y2200D02*Y1900D01*
Y2200D02*X13970Y2250D01*
X14070D01*
X14120Y2200D01*
Y1900D01*
X14070Y1850D02*X14120Y1900D01*
X13970Y1850D02*X14070D01*
X13920Y1900D02*X13970Y1850D01*
X14240Y2250D02*Y1850D01*
Y2250D02*Y2200D01*
X14490Y1950D01*
Y2250D02*Y1850D01*
X14610Y2250D02*Y1850D01*
Y2250D02*Y2200D01*
X14860Y1950D01*
Y2250D02*Y1850D01*
X14980Y2200D02*X15030Y2250D01*
X15180D01*
X15230Y2200D01*
Y2100D01*
X14980Y1850D02*X15230Y2100D01*
X14980Y1850D02*X15230D01*
G54D17*X4697Y7841D02*Y4888D01*
X3713Y7841D02*X4697D01*
X3713D02*Y4888D01*
Y4849D02*X4697D01*
G04 Text: C3 *
G54D15*X3800Y8250D02*Y8100D01*
X3750Y8050D02*X3800Y8100D01*
X3450Y8050D02*X3750D01*
X3450D02*X3400Y8100D01*
Y8250D02*Y8100D01*
X3450Y8370D02*X3400Y8420D01*
Y8520D02*Y8420D01*
Y8520D02*X3450Y8570D01*
X3750D01*
X3800Y8520D02*X3750Y8570D01*
X3800Y8520D02*Y8420D01*
X3750Y8370D02*X3800Y8420D01*
X3600Y8570D02*Y8420D01*
G54D17*X5100Y8350D02*X12800D01*
X5100Y8850D02*Y4750D01*
Y8850D02*X12800D01*
X5100Y4750D02*X12800D01*
Y8850D02*Y4750D01*
G04 Text: U1 *
G54D15*X4500Y8050D02*X4850D01*
X4900Y8100D01*
Y8200D02*Y8100D01*
Y8200D02*X4850Y8250D01*
X4500D02*X4850D01*
X4900Y8520D02*Y8420D01*
X4500Y8470D02*X4900D01*
X4600Y8370D02*X4500Y8470D01*
G54D17*X13202Y7811D02*Y4858D01*
X14186D01*
Y7811D02*Y4858D01*
X13202Y7850D02*X14186D01*
G04 Text: C2 *
G54D15*X13500Y8250D02*Y8100D01*
X13450Y8050D02*X13500Y8100D01*
X13150Y8050D02*X13450D01*
X13150D02*X13100Y8100D01*
Y8250D02*Y8100D01*
X13150Y8370D02*X13100Y8420D01*
Y8570D02*Y8420D01*
Y8570D02*X13150Y8620D01*
X13250D01*
X13500Y8370D02*X13250Y8620D01*
X13500D02*Y8370D01*
G54D17*X5300Y4550D02*G75*G03X5300Y4550I0J-2000D01*G01*
G04 Text: C1 *
G54D15*X3900Y650D02*Y500D01*
X3850Y450D02*X3900Y500D01*
X3550Y450D02*X3850D01*
X3550D02*X3500Y500D01*
Y650D02*Y500D01*
X3900Y920D02*Y820D01*
X3500Y870D02*X3900D01*
X3600Y770D02*X3500Y870D01*
G54D17*X100Y4550D02*X3100D01*
X100Y550D02*X3100D01*
X100Y4550D02*Y550D01*
X3100Y4550D02*Y550D01*
X2900Y4550D02*Y550D01*
G04 Text: CONN3 *
G54D15*X650Y50D02*X800D01*
X600Y100D02*X650Y50D01*
X600Y400D02*Y100D01*
Y400D02*X650Y450D01*
X800D01*
X920Y400D02*Y100D01*
Y400D02*X970Y450D01*
X1070D01*
X1120Y400D01*
Y100D01*
X1070Y50D02*X1120Y100D01*
X970Y50D02*X1070D01*
X920Y100D02*X970Y50D01*
X1240Y450D02*Y50D01*
Y450D02*Y400D01*
X1490Y150D01*
Y450D02*Y50D01*
X1610Y450D02*Y50D01*
Y450D02*Y400D01*
X1860Y150D01*
Y450D02*Y50D01*
X1980Y400D02*X2030Y450D01*
X2130D01*
X2180Y400D01*
Y100D01*
X2130Y50D02*X2180Y100D01*
X2030Y50D02*X2130D01*
X1980Y100D02*X2030Y50D01*
Y250D02*X2180D01*
G54D17*X8200Y930D02*G75*G03X8200Y930I0J220D01*G01*
G54D20*Y1130D02*G75*G03X8200Y1130I0J20D01*G01*
G04 Text: LED1 *
G54D15*X7600Y750D02*Y350D01*
X7800D01*
X7920Y550D02*X8070D01*
X7920Y350D02*X8120D01*
X7920Y750D02*Y350D01*
Y750D02*X8120D01*
X8290D02*Y350D01*
X8440Y750D02*X8490Y700D01*
Y400D01*
X8440Y350D02*X8490Y400D01*
X8240Y350D02*X8440D01*
X8240Y750D02*X8440D01*
X8660Y350D02*X8760D01*
X8710Y750D02*Y350D01*
X8610Y650D02*X8710Y750D01*
M02*
